<svg width="32" height="32" viewBox="0 0 32 32" fill="none" xmlns="http://www.w3.org/2000/svg">
  <!-- Cloud/flower outline shape with red border -->
  <path d="M16 5 C18 5, 20 5.5, 21.5 7 C23 8.5, 23.5 10.5, 23.5 12.5 C24.5 13, 25 14, 25 16 C25 18, 24.5 19, 23.5 20 C23.5 22, 23 24, 21.5 25.5 C20 27, 18 27.5, 16 27.5 C14 27.5, 12 27, 10.5 25.5 C9 24, 8.5 22, 8.5 20 C7.5 19, 7 18, 7 16 C7 14, 7.5 13, 8.5 12.5 C8.5 10.5, 9 8.5, 10.5 7 C12 5.5, 14 5, 16 5 Z" stroke="#DC143C" stroke-width="1.8" fill="#FFFFFF"/>
  <!-- Red cross -->
  <rect x="14.5" y="11.5" width="3" height="9" fill="#DC143C" rx="0.3"/>
  <rect x="11.5" y="14.5" width="9" height="3" fill="#DC143C" rx="0.3"/>
</svg>
