<svg width="40" height="40" viewBox="0 0 50 50" fill="none" xmlns="http://www.w3.org/2000/svg">
  <!-- Cloud/flower outline shape with red border -->
  <path d="M25 8 C28 8, 31 9, 33 11 C35 13, 36 16, 36 19 C38 20, 39 22, 39 25 C39 28, 38 30, 36 31 C36 34, 35 37, 33 39 C31 41, 28 42, 25 42 C22 42, 19 41, 17 39 C15 37, 14 34, 14 31 C12 30, 11 28, 11 25 C11 22, 12 20, 14 19 C14 16, 15 13, 17 11 C19 9, 22 8, 25 8 Z" stroke="#DC143C" stroke-width="2.5" fill="#FFFFFF"/>
  <!-- Red cross -->
  <rect x="23" y="18" width="4" height="14" fill="#DC143C" rx="0.5"/>
  <rect x="18" y="23" width="14" height="4" fill="#DC143C" rx="0.5"/>
</svg>

